<svg width="26" height="27" viewBox="0 0 26 27" fill="none" xmlns="http://www.w3.org/2000/svg">
<path d="M19.65 6.63639H19.6621M6.95457 0.909119H19.0455C22.3843 0.909119 25.0909 3.75822 25.0909 7.27275V20C25.0909 23.5146 22.3843 26.3637 19.0455 26.3637H6.95457C3.61576 26.3637 0.909119 23.5146 0.909119 20V7.27275C0.909119 3.75822 3.61576 0.909119 6.95457 0.909119ZM17.8364 12.8346C17.9856 13.8938 17.8137 14.9756 17.3452 15.926C16.8767 16.8765 16.1354 17.6473 15.2267 18.1287C14.3181 18.6101 13.2883 18.7777 12.284 18.6076C11.2796 18.4375 10.3518 17.9383 9.63252 17.1811C8.9132 16.424 8.43901 15.4473 8.2774 14.3901C8.11579 13.3329 8.27498 12.249 8.73233 11.2925C9.18968 10.336 9.92191 9.5557 10.8249 9.06252C11.7278 8.56934 12.7555 8.38841 13.7618 8.54548C14.7882 8.7057 15.7384 9.20916 16.4722 9.98151C17.2059 10.7539 17.6842 11.7541 17.8364 12.8346Z" stroke="#F5F5F5" stroke-linecap="round" stroke-linejoin="round"/>
</svg>
